<?xml version="1.0" standalone="no"?>
<!DOCTYPE svg PUBLIC "-//W3C//DTD SVG 20010904//EN"
 "http://www.w3.org/TR/2001/REC-SVG-20010904/DTD/svg10.dtd">
<svg version="1.0" xmlns="http://www.w3.org/2000/svg"
 width="600.000000pt" height="438.000000pt" viewBox="0 0 600.000000 438.000000"
 preserveAspectRatio="xMidYMid meet">
<g transform="translate(0.000000,438.000000) scale(0.100000,-0.100000)"
fill="#000000" stroke="none">
<path d="M2180 4225 c-57 -18 -122 -73 -158 -133 -24 -42 -27 -56 -27 -142 0
-80 4 -103 24 -143 50 -102 152 -172 266 -181 60 -5 60 -5 5 5 -170 30 -280
158 -280 327 0 112 49 191 150 243 77 40 194 25 238 -30 11 -14 11 -14 6 1
-18 51 -140 80 -224 53z"/>
<path d="M2865 4153 c-36 -9 -75 -44 -116 -104 -38 -57 -202 -363 -205 -384
-1 -6 -27 -67 -59 -135 -72 -157 -127 -292 -122 -297 16 -15 43 30 102 170 38
89 74 169 80 177 7 8 15 28 19 44 11 44 152 333 201 411 54 85 82 107 133 103
35 -3 37 -5 40 -40 5 -60 -50 -129 -238 -302 -74 -68 -74 -69 -14 -22 98 75
221 203 248 259 31 61 32 81 6 107 -20 20 -36 22 -75 13z"/>
<path d="M2421 4149 c-1 -4 6 -23 14 -42 27 -64 13 -150 -32 -200 -15 -16 -15
-17 -1 -12 25 10 58 89 58 137 0 34 -36 141 -39 117z"/>
<path d="M2145 3995 c-3 -8 -7 -22 -10 -31 -8 -26 22 -83 57 -104 36 -23 106
-23 162 -1 45 18 26 22 -28 6 -109 -33 -210 44 -166 126 8 13 7 19 0 19 -6 0
-13 -7 -15 -15z"/>
<path d="M2386 3692 c-80 -159 -166 -388 -166 -443 0 -41 38 -59 75 -35 15 10
24 20 21 24 -4 3 -12 0 -18 -6 -23 -23 -48 -14 -48 17 0 49 73 246 170 458 33
72 3 58 -34 -15z"/>
<path d="M2828 3675 c-50 -37 -94 -104 -128 -194 -21 -55 -64 -124 -109 -173
-63 -71 -52 2 24 157 61 124 70 176 30 184 -19 3 -19 3 -2 -17 18 -19 17 -23
-36 -123 -69 -132 -91 -193 -77 -220 6 -10 19 -19 29 -19 20 0 77 64 107 120
18 35 18 35 25 -3 21 -123 125 -63 228 131 22 41 -4 22 -28 -21 -92 -161 -173
-206 -170 -94 1 64 22 110 54 120 44 15 111 63 140 102 60 78 -2 113 -87 50z
m102 5 c0 -27 -61 -93 -115 -124 -61 -36 -70 -33 -44 14 52 93 159 167 159
110z"/>
<path d="M2468 3656 c-20 -6 -40 -14 -44 -18 -14 -14 21 -8 61 11 45 22 38 25
-17 7z"/>
<path d="M3940 3555 c-263 -44 -452 -125 -632 -273 -78 -63 -152 -144 -205
-222 -87 -129 -310 -622 -593 -1310 -181 -442 -284 -641 -388 -752 -77 -83
-150 -109 -188 -67 -16 17 -19 35 -17 98 1 59 13 117 56 266 111 379 216 666
364 995 91 200 121 259 235 463 88 158 97 177 78 177 -19 0 -165 -156 -223
-236 -174 -246 -374 -669 -588 -1244 -123 -329 -223 -524 -284 -552 -57 -26
-105 23 -105 107 0 80 60 314 131 509 51 140 203 510 286 696 170 377 216 491
204 503 -7 7 -13 4 -17 -9 -48 -132 -185 -436 -250 -551 -55 -99 -202 -316
-281 -413 -79 -99 -196 -216 -269 -270 -143 -107 -318 -173 -459 -174 -68 -1
-88 3 -137 27 -67 33 -115 86 -155 173 -26 56 -28 67 -27 194 0 124 3 142 31
220 97 271 247 444 488 561 118 58 229 85 301 74 40 -5 57 -15 89 -49 116
-121 76 -353 -90 -527 -62 -65 -165 -132 -230 -151 -54 -16 -79 -46 -29 -34
61 14 172 77 232 132 95 86 155 183 187 304 18 69 19 111 1 178 -19 69 -51
115 -100 143 -34 19 -49 21 -125 16 -311 -19 -677 -322 -786 -652 -82 -249 -3
-516 180 -605 89 -44 235 -39 375 11 80 29 211 101 278 152 126 97 334 346
451 540 56 93 71 110 45 50 -201 -458 -358 -959 -339 -1076 14 -81 37 -107 96
-107 80 0 243 264 383 620 21 52 46 115 56 140 11 25 37 95 59 155 144 400
265 663 406 880 52 80 149 195 165 195 5 0 -16 -44 -47 -97 -149 -263 -340
-694 -463 -1048 -90 -257 -173 -541 -190 -648 -22 -143 30 -205 134 -158 89
39 185 147 299 336 51 85 197 376 242 485 15 36 38 91 51 123 57 135 78 188
198 486 267 663 327 774 501 922 142 122 304 204 500 255 102 27 124 29 295
29 203 0 257 -9 352 -56 72 -36 124 -87 154 -153 30 -65 30 -118 0 -181 -30
-64 -76 -107 -149 -140 -113 -52 -243 -52 -457 0 -293 72 -405 73 -541 4 -132
-66 -179 -206 -90 -266 42 -28 72 -29 102 -2 24 20 24 20 -6 13 -51 -12 -79
-7 -102 21 -80 92 65 245 255 269 89 11 219 -13 487 -89 86 -25 262 -26 336
-2 125 42 219 157 219 271 0 105 -87 224 -199 273 -128 55 -369 77 -541 48z
m-1323 -1677 c-3 -8 -6 -5 -6 6 -1 11 2 17 5 13 3 -3 4 -12 1 -19z"/>
<path d="M2331 3267 c-13 -21 -12 -21 5 -5 10 10 16 20 13 22 -3 3 -11 -5 -18
-17z"/>
<path d="M4963 3136 c-127 -41 -235 -154 -232 -244 1 -37 1 -37 9 5 20 99 86
170 198 215 44 17 77 22 147 22 150 -1 264 -50 360 -157 71 -78 89 -134 83
-257 -4 -77 -9 -97 -45 -171 -54 -112 -115 -191 -234 -302 -91 -84 -144 -125
-113 -86 26 32 244 564 244 595 0 8 -9 14 -19 14 -13 0 -24 -13 -35 -41 -16
-39 -18 -40 -35 -25 -44 40 -134 6 -221 -84 -56 -57 -62 -69 -169 -294 -66
-139 -137 -254 -178 -286 -67 -53 -61 -13 41 260 20 52 43 121 51 152 14 52
14 61 0 88 -32 62 -111 46 -161 -34 -29 -46 -44 -57 -44 -33 0 24 -35 47 -72
47 -51 0 -95 -48 -142 -156 -109 -249 -193 -420 -222 -450 -35 -38 -68 -44
-84 -15 -18 34 -11 67 31 163 93 211 159 371 159 388 0 6 -9 10 -20 10 -11 0
-20 -5 -20 -11 0 -6 -11 -37 -25 -68 -13 -31 -52 -121 -85 -201 -64 -151 -130
-282 -158 -314 -25 -28 -71 -48 -92 -41 -17 5 -20 16 -20 59 0 67 16 113 215
631 42 110 81 212 87 228 12 34 4 59 -17 51 -8 -3 -15 -10 -15 -16 0 -9 -157
-426 -167 -441 -3 -5 -13 -1 -23 8 -15 13 -25 14 -57 6 -57 -16 -97 -44 -142
-100 -77 -98 -134 -222 -160 -350 -20 -97 -94 -201 -143 -201 -25 0 -41 45
-33 94 5 35 54 171 142 396 27 69 121 326 155 422 20 58 18 78 -7 78 -8 0 -23
-30 -38 -77 -30 -95 -123 -359 -132 -373 -4 -6 -14 -4 -28 5 -35 22 -85 3
-150 -58 -80 -74 -118 -142 -200 -360 -25 -69 -181 -253 -239 -283 -42 -22
-75 -18 -94 11 -20 30 -15 75 18 178 21 64 25 70 69 92 92 47 237 182 260 242
22 58 8 83 -47 83 -73 0 -198 -113 -257 -232 -75 -150 -98 -331 -50 -380 25
-25 68 -26 110 -4 34 17 151 139 189 196 15 22 29 40 32 40 2 0 2 -18 -2 -39
-6 -41 7 -90 27 -103 43 -28 116 18 165 104 30 51 30 51 37 9 4 -23 13 -48 22
-56 42 -42 124 12 175 115 22 44 22 44 29 16 12 -45 38 -66 80 -66 47 0 80 27
114 95 18 37 25 44 25 27 0 -13 7 -36 15 -52 32 -63 121 -28 182 72 38 61 38
61 44 29 9 -43 26 -61 59 -61 65 0 120 88 271 430 70 158 109 210 158 210 39
0 54 -21 46 -62 -4 -18 -41 -126 -82 -240 -69 -191 -78 -235 -51 -226 12 4 26
40 114 283 36 99 76 199 89 221 29 49 81 96 103 92 40 -8 36 -31 -37 -263 -78
-246 -84 -288 -40 -293 45 -5 106 66 184 216 21 39 39 72 40 72 2 0 0 -37 -2
-82 -5 -72 -3 -86 14 -106 25 -32 82 -34 123 -4 16 13 30 19 30 14 0 -14 -41
-96 -58 -114 -8 -10 -12 -18 -8 -18 10 0 -163 -338 -230 -450 -119 -198 -180
-258 -251 -247 -43 7 -73 38 -73 74 0 14 14 53 31 87 63 125 170 245 367 413
67 58 122 107 122 110 0 4 -8 -1 -17 -9 -10 -8 -54 -44 -98 -79 -227 -182
-397 -388 -420 -511 -5 -28 -2 -40 17 -62 57 -67 184 -31 265 74 38 49 163
245 163 255 0 2 14 28 31 57 46 78 209 400 209 414 0 6 19 24 43 39 23 16 90
76 148 134 159 160 238 311 239 457 0 174 -106 317 -282 382 -59 21 -249 26
-305 8z m317 -444 c23 -18 23 -18 -43 -190 -132 -343 -203 -440 -282 -388 -33
22 -33 75 0 190 51 177 157 342 250 390 38 20 48 20 75 -2z m-1346 -358 c22
-8 20 -20 -15 -116 -106 -283 -154 -386 -200 -430 -65 -62 -120 -10 -105 98
13 100 125 312 211 402 49 50 73 60 109 46z m-426 -116 c4 -21 -138 -383 -175
-447 -43 -75 -102 -132 -132 -129 -24 3 -26 6 -26 58 1 61 58 246 105 341 36
71 103 155 143 180 38 23 80 21 85 -3z m-352 -103 c8 -32 -19 -76 -88 -143
-82 -80 -182 -151 -195 -138 -8 8 89 184 126 228 34 40 99 77 133 78 10 0 20
-10 24 -25z"/>
<path d="M5081 2875 c-59 -61 -100 -85 -159 -92 -71 -8 -114 3 -150 39 -41 39
-52 32 -12 -8 76 -79 202 -68 318 27 34 28 62 58 62 65 0 23 -13 16 -59 -31z"/>
<path d="M4306 2616 c-18 -38 -20 -62 -7 -70 12 -8 36 23 49 61 18 54 -17 62
-42 9z"/>
<path d="M3721 1393 c-83 -85 -288 -465 -355 -656 -10 -31 -48 -17 -61 23 -13
35 -13 35 -19 5 -31 -141 -129 -312 -174 -303 -46 9 -12 176 62 306 35 61 109
109 127 81 7 -11 9 -11 9 4 0 42 -104 7 -147 -49 -14 -19 -34 -34 -45 -34 -32
0 -78 54 -78 92 0 59 53 122 110 131 14 2 24 8 22 13 -5 14 -44 5 -80 -19 -34
-23 -72 -88 -72 -124 0 -32 42 -85 75 -96 17 -5 31 -11 33 -12 2 -2 -8 -25
-22 -52 -34 -68 -59 -169 -51 -210 7 -38 41 -53 81 -34 31 14 108 132 138 212
13 35 26 57 30 50 4 -6 16 -11 27 -11 10 0 19 -2 19 -4 0 -3 -13 -44 -29 -93
-43 -128 -62 -235 -63 -346 -1 -83 2 -103 19 -125 26 -35 38 -37 62 -10 62 66
85 299 49 490 -11 58 -11 58 72 237 61 131 89 183 107 192 55 29 196 204 228
282 27 66 28 95 5 107 -20 11 -28 6 -79 -47z m79 12 c0 -34 -48 -127 -103
-200 -55 -73 -137 -154 -137 -136 0 7 30 71 66 142 90 175 174 268 174 194z
m-415 -955 c0 -132 -4 -177 -18 -225 -24 -79 -42 -103 -65 -89 -48 30 -37 217
24 406 48 149 59 132 59 -92z"/>
<path d="M3244 795 c-10 -8 -14 -15 -8 -15 6 0 17 7 24 15 16 19 9 19 -16 0z"/>
<path d="M3560 795 c0 -27 -61 -84 -113 -105 -42 -16 -45 -19 -17 -14 19 4 51
15 71 25 49 24 102 109 69 109 -5 0 -10 -7 -10 -15z"/>
</g>
</svg>
